name C:\Users\u0150099\Documents\master_thesis\3dpredictsim\Results\Final\Fal_s1_bCst_tanh10_ig1_v33.mot
datacolumns 126
datarows 4
range 0.76775487 0.78310997
endheader
time	pelvis_tilt	pelvis_list	pelvis_rotation	pelvis_tx	pelvis_ty	pelvis_tz	hip_flexion_l	hip_adduction_l	hip_rotation_l	hip_flexion_r	hip_adduction_r	hip_rotation_r	knee_angle_l	knee_angle_r	ankle_angle_l	ankle_angle_r	subtalar_angle_l	subtalar_angle_r	mtp_angle_l	mtp_angle_r	lumbar_extension	lumbar_bending	lumbar_rotation	arm_flex_l	arm_add_l	arm_rot_l	arm_flex_r	arm_add_r	arm_rot_r	elbow_flex_l	elbow_flex_r	pro_sup_l	pro_sup_r	glut_med1_l/activation	glut_med2_l/activation	glut_med3_l/activation	glut_min1_l/activation	glut_min2_l/activation	glut_min3_l/activation	semimem_l/activation	semiten_l/activation	bifemlh_l/activation	bifemsh_l/activation	sar_l/activation	add_long_l/activation	add_brev_l/activation	add_mag1_l/activation	add_mag2_l/activation	add_mag3_l/activation	tfl_l/activation	pect_l/activation	grac_l/activation	glut_max1_l/activation	glut_max2_l/activation	glut_max3_l/activation	iliacus_l/activation	psoas_l/activation	quad_fem_l/activation	gem_l/activation	peri_l/activation	rect_fem_l/activation	vas_med_l/activation	vas_int_l/activation	vas_lat_l/activation	med_gas_l/activation	lat_gas_l/activation	soleus_l/activation	tib_post_l/activation	flex_dig_l/activation	flex_hal_l/activation	tib_ant_l/activation	per_brev_l/activation	per_long_l/activation	per_tert_l/activation	ext_dig_l/activation	ext_hal_l/activation	ercspn_l/activation	intobl_l/activation	extobl_l/activation	glut_med1_r/activation	glut_med2_r/activation	glut_med3_r/activation	glut_min1_r/activation	glut_min2_r/activation	glut_min3_r/activation	semimem_r/activation	semiten_r/activation	bifemlh_r/activation	bifemsh_r/activation	sar_r/activation	add_long_r/activation	add_brev_r/activation	add_mag1_r/activation	add_mag2_r/activation	add_mag3_r/activation	tfl_r/activation	pect_r/activation	grac_r/activation	glut_max1_r/activation	glut_max2_r/activation	glut_max3_r/activation	iliacus_r/activation	psoas_r/activation	quad_fem_r/activation	gem_r/activation	peri_r/activation	rect_fem_r/activation	vas_med_r/activation	vas_int_r/activation	vas_lat_r/activation	med_gas_r/activation	lat_gas_r/activation	soleus_r/activation	tib_post_r/activation	flex_dig_r/activation	flex_hal_r/activation	tib_ant_r/activation	per_brev_r/activation	per_long_r/activation	per_tert_r/activation	ext_dig_r/activation	ext_hal_r/activation	ercspn_r/activation	intobl_r/activation	extobl_r/activation	
          0.76775487	        -12.99414063	          1.61528438	         -2.23942012	          2.55662372	          0.93934753	          0.00803863	         44.72432363	          0.52095619	         -6.41842486	        -11.07135688	         -0.49123227	          0.67435200	        -25.30366572	         -7.74070301	        -36.67651867	        -40.27702664	          2.99305003	         -3.73847376	         13.48794641	          6.85511352	         -5.09912429	         -3.34883947	          6.41101572	        -10.38613074	        -40.27359642	        -12.93045571	         29.27244402	        -31.50148853	         18.31807467	        114.84034158	        102.70671192	         86.51662706	         86.51662706	          0.09080923	          0.29693701	          0.14860549	          0.16089986	          0.18579350	          0.37926104	          0.65732950	          0.59490244	          0.82834122	          0.11926707	          0.11336846	          0.07528893	          0.07528895	          0.07528893	          0.06937117	          0.28599810	          0.14562149	          0.09303433	          0.36554144	          0.63350505	          0.41352198	          0.05426530	          0.05035770	          0.06829211	          0.05889442	          0.06378653	          0.98636793	          0.05128204	          0.05000000	          0.05000000	          0.05000000	          0.66106602	          0.97494870	          0.68293471	          0.76649633	          0.84843240	          0.84804342	          0.13025379	          0.30157788	          0.57195376	          0.08171151	          0.08171154	          0.10526846	          0.37654831	          0.06084028	          0.19297684	          0.16077378	          0.15729007	          0.14507704	          0.19988396	          0.18527848	          0.16511180	          0.05889448	          0.05071742	          0.05000000	          0.12303955	          0.39898944	          0.77421911	          0.15624006	          0.19324497	          0.17244562	          0.08786542	          0.53566491	          0.62543359	          0.58886490	          0.15808866	          0.09436385	          0.07435009	          0.81206504	          0.96207875	          0.63806266	          0.69846062	          0.21307742	          0.99063575	          0.28921394	          0.30798853	          0.22804699	          0.06937116	          0.06937115	          0.08171154	          0.05870886	          0.05000002	          0.06493406	          0.52747987	          0.35554200	          0.26722566	          0.83193059	          0.65437691	          0.83680196	          0.08278538	          0.69310281	          0.05000000	
          0.77287324	        -12.92862069	          1.05544611	         -2.04356225	          2.57495427	          0.93689083	          0.00933014	         46.11294483	         -0.33808856	         -5.83104530	        -12.03924376	          0.41023843	          0.14085669	        -29.05914542	         -7.11159901	        -37.61240579	        -36.85222652	          4.59541346	         -5.44100314	         15.10518850	          6.11297771	         -4.93779230	         -3.13374322	          6.55151157	         -9.74709051	        -39.82052926	        -12.76589183	         28.61518757	        -32.01494867	         17.68804112	        114.91375469	        102.51661414	         86.51662706	         86.51662706	          0.08367154	          0.27359748	          0.36521098	          0.17920989	          0.17163611	          0.53718485	          0.60566277	          0.54814254	          0.76323281	          0.10989256	          0.10445760	          0.06937116	          0.06937117	          0.06937115	          0.06391853	          0.26351839	          0.13417550	          0.08572175	          0.33680954	          0.72674598	          0.56272938	          0.05000000	          0.07528892	          0.07289364	          0.05426526	          0.30197103	          0.98983611	          0.05000000	          0.29169197	          0.29169197	          0.29169197	          0.60910560	          0.98132207	          0.62925539	          0.82590260	          0.85126896	          0.88670308	          0.12001571	          0.47926527	          0.68085412	          0.07528896	          0.07528893	          0.09699426	          0.34695126	          0.05605817	          0.17780868	          0.14813680	          0.14492692	          0.13367385	          0.18417289	          0.17071541	          0.15213386	          0.05426532	          0.05000000	          0.05000000	          0.11336852	          0.36762849	          0.83166060	          0.23201394	          0.39849360	          0.22880839	          0.08095913	          0.49356114	          0.72072800	          0.56735630	          0.14566274	          0.13353533	          0.17317589	          0.74924950	          0.97172639	          0.73014408	          0.64356097	          0.19632933	          0.99301814	          0.41335355	          0.43659408	          0.33186132	          0.06391852	          0.06391851	          0.07528893	          0.06436004	          0.05000006	          0.05983018	          0.57185804	          0.32759606	          0.24622147	          0.87468956	          0.74230778	          0.87832160	          0.07627837	          0.71602552	          0.05000000	
          0.77799160	        -12.86610579	          0.51139021	         -1.84739234	          2.59324833	          0.93433503	          0.01059515	         47.35364202	         -1.15093577	         -5.22970297	        -12.90866717	          1.30137635	         -0.43502638	        -32.78167876	         -6.42359718	        -38.47565501	        -33.46681313	          6.36346439	         -7.10142921	         17.25646720	          5.53913071	         -4.78282722	         -2.93311183	          6.66233090	         -9.02275704	        -39.33075366	        -12.55722240	         27.86246449	        -32.50319057	         16.92240755	        114.95319261	        102.34277914	         86.51662706	         86.51662706	          0.10339093	          0.45840344	          0.52670931	          0.31023202	          0.38238232	          0.65493086	          0.55805710	          0.50505801	          0.70324198	          0.10125490	          0.09624714	          0.06391852	          0.06391853	          0.06391851	          0.05889448	          0.45088859	          0.12362918	          0.07898394	          0.31033599	          0.79626525	          0.67397654	          0.05891576	          0.06937114	          0.06716413	          0.05000000	          0.47955840	          0.99242193	          0.08171155	          0.47189446	          0.47189446	          0.47189446	          0.70855406	          0.98607397	          0.72357750	          0.87019518	          0.88910799	          0.91552725	          0.11058236	          0.61174675	          0.76204885	          0.06937117	          0.06937115	          0.08937041	          0.31968055	          0.05165195	          0.16383274	          0.13649311	          0.13353553	          0.12316696	          0.16969672	          0.15729702	          0.14017599	          0.05000002	          0.05000000	          0.05000000	          0.10445765	          0.33873254	          0.84508051	          0.42739927	          0.55152440	          0.42500915	          0.14270685	          0.45476676	          0.79177832	          0.54612094	          0.13421351	          0.12303942	          0.18527013	          0.75050839	          0.97891956	          0.79879883	          0.59297647	          0.18089766	          0.99479442	          0.47638027	          0.50404697	          0.38017022	          0.05889446	          0.05889445	          0.06937115	          0.06466105	          0.06391851	          0.05512748	          0.68078275	          0.49866408	          0.22686823	          0.90657012	          0.80786793	          0.90927812	          0.08268481	          0.65974523	          0.08289494	
          0.78310997	        -12.81317444	         -0.01250718	         -1.64899471	          2.61145889	          0.93180204	          0.01182317	         48.32809909	         -1.89193882	         -4.58564392	        -13.66499672	          2.18279168	         -1.04232633	        -36.06920528	         -5.66473772	        -39.06864631	        -30.23810435	          8.22213084	         -8.71921534	         19.22201109	          5.10682593	         -4.63762298	         -2.75019251	          6.74381888	         -8.20925598	        -38.79293369	        -12.30331851	         27.01657416	        -32.95976124	         16.02874013	        114.94831141	        102.17418220	         86.51662706	         86.51662706	          0.19900752	          0.59619243	          0.64712043	          0.37202683	          0.53951204	          0.74272080	          0.51419328	          0.46535997	          0.64796649	          0.09329617	          0.08868203	          0.05889446	          0.05889447	          0.05889445	          0.05426532	          0.59058946	          0.11391181	          0.07277573	          0.28594328	          0.84809794	          0.75692102	          0.29833945	          0.06391851	          0.06188497	          0.10065878	          0.61196530	          0.99434989	          0.07528895	          0.43480311	          0.43480311	          0.59989222	          0.78270158	          0.98961693	          0.79390287	          0.90321916	          0.91732016	          0.93701818	          0.10189048	          0.71052327	          0.82258663	          0.06391853	          0.06391851	          0.08234581	          0.29455336	          0.05141586	          0.15095533	          0.12576462	          0.12303951	          0.11348592	          0.15635840	          0.14493332	          0.12915803	          0.05000000	          0.05000000	          0.05000000	          0.09624718	          0.31210784	          0.80842260	          0.39380528	          0.52564910	          0.39160308	          0.13149001	          0.41902166	          0.84475254	          0.50319532	          0.12366421	          0.11336842	          0.17070773	          0.81398219	          0.98428269	          0.81419433	          0.54636796	          0.16667893	          0.99611878	          0.52359185	          0.55532245	          0.41566215	          0.05426530	          0.05426529	          0.06391851	          0.05957863	          0.05889446	          0.05619838	          0.76199564	          0.62621026	          0.20903617	          0.93033986	          0.85674875	          0.93235891	          0.12902353	          0.60788863	          0.09574240	
